SplineFontDB: 3.2
FontName: Serene-Regular
FullName: Serene Regular
FamilyName: Serene
Weight: Regular
Copyright: Copyright (c) 2022, the SerenityOS developers.
UComments: "2021-6-17: Created with FontForge (http://fontforge.org)"
Version: 02.000
ItalicAngle: 0
UnderlinePosition: -50
UnderlineWidth: 25
Ascent: 375
Descent: 125
InvalidEm: 0
LayerCount: 2
Layer: 0 0 "Back" 1
Layer: 1 0 "Fore" 0
XUID: [1021 842 838150694 14286036]
OS2Version: 0
OS2_WeightWidthSlopeOnly: 0
OS2_UseTypoMetrics: 1
CreationTime: 1623906316
ModificationTime: 1658561069
OS2TypoAscent: 0
OS2TypoAOffset: 1
OS2TypoDescent: 0
OS2TypoDOffset: 1
OS2TypoLinegap: 0
OS2WinAscent: 0
OS2WinAOffset: 1
OS2WinDescent: 0
OS2WinDOffset: 1
HheadAscent: 0
HheadAOffset: 1
HheadDescent: 0
HheadDOffset: 1
OS2Vendor: 'PfEd'
Lookup: 258 0 0 "pair kerning" { "pair kerning-1" [75,7,0] } ['kern' ('DFLT' <'dflt' > 'latn' <'dflt' > ) ]
MarkAttachClasses: 1
DEI: 91125
Encoding: Custom
UnicodeInterp: none
NameList: AGL For New Fonts
DisplaySize: -48
AntiAlias: 1
FitToEm: 0
WinInfo: 0 32 20
BeginPrivate: 0
EndPrivate
BeginChars: 262 103

StartChar: z
Encoding: 122 122 0
Width: 182
Flags: HW
LayerCount: 2
Fore
SplineSet
16 225 m 1
 166 225 l 1
 166 185 l 1
 66 65 l 1
 166 65 l 1
 166 25 l 1
 16 25 l 1
 16 65 l 1
 116 185 l 1
 16 185 l 1
 16 225 l 1
EndSplineSet
EndChar

StartChar: y
Encoding: 121 121 1
Width: 182
Flags: HW
LayerCount: 2
Fore
SplineSet
16 225 m 1
 56 225 l 1
 56 100 l 2
 56 50 126 50 126 100 c 2
 126 225 l 1
 166 225 l 1
 166 100 l 1
 166 -50 l 2
 166 -150 16 -150 16 -50 c 1
 56 -50 l 1
 56 -100 126 -100 126 -50 c 2
 126 32.79296875 l 1
 81.564453125 11.4853515625 16 33.8857421875 16 100 c 2
 16 225 l 1
EndSplineSet
EndChar

StartChar: w
Encoding: 119 119 2
Width: 182
Flags: HW
LayerCount: 2
Fore
SplineSet
61 25 m 0
 38.5 25 16 50 16 100 c 2
 16 225 l 1
 56 225 l 1
 56 100 l 2
 56 50 76 50 76 100 c 2
 76 225 l 1
 106 225 l 1
 106 100 l 2
 106 50 126 50 126 100 c 2
 126 225 l 1
 166 225 l 1
 166 100 l 2
 166 25.9140625 116.602539062 6.7177734375 91 42.40625 c 1
 82.6767578125 30.8037109375 71.8388671875 25 61 25 c 0
EndSplineSet
EndChar

StartChar: v
Encoding: 118 118 3
Width: 182
Flags: HW
LayerCount: 2
Fore
SplineSet
56 225 m 1
 91 105 l 1
 126 225 l 1
 166 225 l 1
 106 25 l 1
 76 25 l 1
 16 225 l 1
 56 225 l 1
EndSplineSet
EndChar

StartChar: u
Encoding: 117 117 4
Width: 182
Flags: HW
LayerCount: 2
Fore
SplineSet
16 225 m 1
 56 225 l 1
 56 100 l 2
 56 50 126 50 126 100 c 2
 126 225 l 1
 166 225 l 1
 166 100 l 2
 166 0 16 0 16 100 c 2
 16 225 l 1
EndSplineSet
EndChar

StartChar: t
Encoding: 116 116 5
Width: 182
Flags: HW
LayerCount: 2
Fore
SplineSet
16 375 m 1
 56 375 l 1
 56 225 l 1
 116 225 l 1
 116 185 l 1
 56 185 l 1
 56 100 l 2
 56 50 126 50 126 100 c 1
 166 100 l 1
 166 0 16 0 16 100 c 2
 16 375 l 1
EndSplineSet
EndChar

StartChar: s
Encoding: 115 115 6
Width: 182
Flags: HW
LayerCount: 2
Fore
SplineSet
91 225 m 0
 128.5 225 166 200 166 150 c 1
 126 150 l 1
 126 200 56 200 56 150 c 1
 166 125 l 1
 166 100 l 2
 166 0 16 0 16 100 c 1
 56 100 l 1
 56 50 126 50 126 100 c 1
 16 125 l 1
 16 150 l 2
 16 200 53.5 225 91 225 c 0
EndSplineSet
EndChar

StartChar: r
Encoding: 114 114 7
Width: 182
Flags: HW
LayerCount: 2
Fore
SplineSet
91 225 m 0
 128.5 225 166 200 166 150 c 1
 126 150 l 1
 126 200 56 200 56 150 c 2
 56 25 l 1
 16 25 l 1
 16 150 l 2
 16 200 53.5 225 91 225 c 0
EndSplineSet
EndChar

StartChar: q
Encoding: 113 113 8
Width: 182
Flags: HW
LayerCount: 2
Fore
SplineSet
91 225 m 0
 128.5 225 166 200 166 150 c 2
 166 100 l 1
 166 -125 l 1
 126 -125 l 1
 126 32.79296875 l 1
 81.564453125 11.4853515625 16 33.8857421875 16 100 c 2
 16 150 l 2
 16 200 53.5 225 91 225 c 0
91 187.5 m 0
 73.5 187.5 56 175 56 150 c 2
 56 100 l 2
 56 50 126 50 126 100 c 2
 126 150 l 2
 126 175 108.5 187.5 91 187.5 c 0
EndSplineSet
EndChar

StartChar: p
Encoding: 112 112 9
Width: 182
Flags: HW
LayerCount: 2
Fore
SplineSet
91 225 m 0
 128.5 225 166 200 166 150 c 2
 166 100 l 2
 166 33.8857421875 100.435546875 11.4853515625 56 32.79296875 c 1
 56 -125 l 1
 16 -125 l 1
 16 100 l 1
 16 150 l 2
 16 200 53.5 225 91 225 c 0
91 187.5 m 0
 73.5 187.5 56 175 56 150 c 2
 56 100 l 2
 56 50 126 50 126 100 c 2
 126 150 l 2
 126 175 108.5 187.5 91 187.5 c 0
EndSplineSet
EndChar

StartChar: o
Encoding: 111 111 10
Width: 182
Flags: W
HStem: 187.5 37.5<66.2582 115.742>
VStem: 16 40<74.5117 177.374> 126 40<74.5117 177.374>
LayerCount: 2
Fore
SplineSet
91 225 m 0
 128.5 225 166 200 166 150 c 2
 166 100 l 2
 166 0 16 0 16 100 c 2
 16 150 l 2
 16 200 53.5 225 91 225 c 0
91 187.5 m 0
 73.5 187.5 56 175 56 150 c 2
 56 100 l 2
 56 50 126 50 126 100 c 2
 126 150 l 2
 126 175 108.5 187.5 91 187.5 c 0
EndSplineSet
EndChar

StartChar: n
Encoding: 110 110 11
Width: 182
Flags: HW
LayerCount: 2
Fore
SplineSet
91 225 m 0
 128.5 225 166 200 166 150 c 2
 166 25 l 1
 126 25 l 1
 126 150 l 2
 126 200 56 200 56 150 c 2
 56 25 l 1
 16 25 l 1
 16 150 l 2
 16 200 53.5 225 91 225 c 0
EndSplineSet
EndChar

StartChar: m
Encoding: 109 109 12
Width: 182
Flags: HW
LayerCount: 2
Fore
SplineSet
61 225 m 0
 71.8388671875 225 82.6767578125 219.196289062 91 207.59375 c 1
 116.602539062 243.282226562 166 224.0859375 166 150 c 2
 166 25 l 1
 126 25 l 1
 126 150 l 2
 126 200 106 200 106 150 c 2
 106 25 l 1
 76 25 l 1
 76 150 l 2
 76 200 56 200 56 150 c 2
 56 25 l 1
 16 25 l 1
 16 150 l 2
 16 200 38.5 225 61 225 c 0
EndSplineSet
EndChar

StartChar: l
Encoding: 108 108 13
Width: 182
Flags: HW
LayerCount: 2
Fore
SplineSet
16 375 m 1
 56 375 l 1
 56 100 l 2
 56 50 126 50 126 100 c 1
 166 100 l 1
 166 0 16 0 16 100 c 2
 16 375 l 1
EndSplineSet
EndChar

StartChar: k
Encoding: 107 107 14
Width: 182
Flags: HW
LayerCount: 2
Fore
SplineSet
16 375 m 1
 56 375 l 1
 56 125 l 1
 56 25 l 1
 16 25 l 1
 16 375 l 1
56 125 m 1
 121 225 l 1
 166 225 l 1
 101 125 l 1
 166 25 l 1
 121 25 l 1
 56 125 l 1
EndSplineSet
EndChar

StartChar: j
Encoding: 106 106 15
Width: 182
Flags: HW
LayerCount: 2
Fore
SplineSet
126 300 m 1
 166 300 l 1
 166 260 l 1
 126 260 l 1
 126 300 l 1
126 -50 m 2
 126 225 l 1
 166 225 l 1
 166 -50 l 2
 166 -150 16 -150 16 -50 c 1
 56 -50 l 1
 56 -100 126 -100 126 -50 c 2
EndSplineSet
EndChar

StartChar: i
Encoding: 105 105 16
Width: 182
Flags: HW
LayerCount: 2
Fore
SplineSet
16 300 m 1
 56 300 l 1
 56 260 l 1
 16 260 l 1
 16 300 l 1
16 225 m 1
 56 225 l 1
 56 100 l 2
 56 50 126 50 126 100 c 1
 166 100 l 1
 166 0 16 0 16 100 c 2
 16 225 l 1
EndSplineSet
EndChar

StartChar: h
Encoding: 104 104 17
Width: 182
Flags: HW
LayerCount: 2
Fore
SplineSet
16 375 m 1
 56 375 l 1
 56 217.20703125 l 1
 100.435546875 238.514648438 166 216.114257812 166 150 c 2
 166 25 l 1
 126 25 l 1
 126 150 l 2
 126 200 56 200 56 150 c 2
 56 25 l 1
 16 25 l 1
 16 375 l 1
EndSplineSet
EndChar

StartChar: g
Encoding: 103 103 18
Width: 182
Flags: HW
LayerCount: 2
Fore
SplineSet
91 225 m 0
 128.5 225 166 200 166 150 c 2
 166 100 l 1
 166 -50 l 2
 166 -150 16 -150 16 -50 c 1
 56 -50 l 1
 56 -100 126 -100 126 -50 c 2
 126 32.79296875 l 1
 81.564453125 11.4853515625 16 33.8857421875 16 100 c 2
 16 150 l 2
 16 200 53.5 225 91 225 c 0
91 187.5 m 0
 73.5 187.5 56 175 56 150 c 2
 56 100 l 2
 56 50 126 50 126 100 c 2
 126 150 l 2
 126 175 108.5 187.5 91 187.5 c 0
EndSplineSet
EndChar

StartChar: f
Encoding: 102 102 19
Width: 182
Flags: HW
LayerCount: 2
Fore
SplineSet
91 375 m 0
 128.5 375 166 350 166 300 c 1
 126 300 l 1
 126 350 56 350 56 300 c 2
 56 225 l 1
 116 225 l 1
 116 185 l 1
 56 185 l 1
 56 25 l 1
 16 25 l 1
 16 300 l 2
 16 350 53.5 375 91 375 c 0
EndSplineSet
EndChar

StartChar: e
Encoding: 101 101 20
Width: 182
Flags: HW
LayerCount: 2
Fore
SplineSet
91 225 m 0
 128.5 225 166 200 166 150 c 2
 166 125 l 1
 56 125 l 1
 56 100 l 2
 56 50 126 50 126 100 c 1
 166 100 l 1
 166 0 16 0 16 100 c 2
 16 150 l 2
 16 200 53.5 225 91 225 c 0
91 187.5 m 0
 73.5 187.5 56 175 56 150 c 1
 126 150 l 1
 126 175 108.5 187.5 91 187.5 c 0
EndSplineSet
EndChar

StartChar: d
Encoding: 100 100 21
Width: 182
Flags: HW
LayerCount: 2
Fore
SplineSet
166 375 m 1
 166 150 l 1
 166 100 l 2
 166 0 16 0 16 100 c 2
 16 150 l 2
 16 216.114257812 81.564453125 238.514648438 126 217.20703125 c 1
 126 375 l 1
 166 375 l 1
91 187.5 m 0
 73.5 187.5 56 175 56 150 c 2
 56 100 l 2
 56 50 126 50 126 100 c 2
 126 150 l 2
 126 175 108.5 187.5 91 187.5 c 0
EndSplineSet
EndChar

StartChar: c
Encoding: 99 99 22
Width: 182
Flags: HW
LayerCount: 2
Fore
SplineSet
91 225 m 0
 128.5 225 166 200 166 150 c 1
 126 150 l 1
 126 200 56 200 56 150 c 2
 56 100 l 2
 56 50 126 50 126 100 c 1
 166 100 l 1
 166 0 16 0 16 100 c 2
 16 150 l 2
 16 200 53.5 225 91 225 c 0
EndSplineSet
EndChar

StartChar: b
Encoding: 98 98 23
Width: 182
Flags: HW
LayerCount: 2
Fore
SplineSet
16 375 m 1
 56 375 l 1
 56 217.20703125 l 1
 100.435546875 238.514648438 166 216.114257812 166 150 c 2
 166 100 l 2
 166 0 16 0 16 100 c 2
 16 150 l 1
 16 375 l 1
91 187.5 m 0
 73.5 187.5 56 175 56 150 c 2
 56 100 l 2
 56 50 126 50 126 100 c 2
 126 150 l 2
 126 175 108.5 187.5 91 187.5 c 0
EndSplineSet
EndChar

StartChar: a
Encoding: 97 97 24
Width: 182
Flags: HW
LayerCount: 2
Fore
SplineSet
91 225 m 0
 128.5 225 166 200 166 150 c 2
 166 100 l 1
 166 25 l 1
 126 25 l 1
 126 32.79296875 l 1
 81.564453125 11.4853515625 16 33.8857421875 16 100 c 2
 16 150 l 2
 16 200 53.5 225 91 225 c 0
91 187.5 m 0
 73.5 187.5 56 175 56 150 c 2
 56 100 l 2
 56 50 126 50 126 100 c 2
 126 150 l 2
 126 175 108.5 187.5 91 187.5 c 0
EndSplineSet
EndChar

StartChar: Z
Encoding: 90 90 25
Width: 182
Flags: HW
LayerCount: 2
Fore
SplineSet
16 375 m 1
 166 375 l 1
 166 335 l 1
 61 65 l 1
 166 65 l 1
 166 25 l 1
 16 25 l 1
 16 65 l 1
 121 335 l 1
 16 335 l 1
 16 375 l 1
EndSplineSet
EndChar

StartChar: Y
Encoding: 89 89 26
Width: 182
Flags: HW
LayerCount: 2
Fore
SplineSet
16 375 m 1
 56 375 l 1
 56 290 l 2
 56 220 126 220 126 290 c 2
 126 375 l 1
 166 375 l 1
 166 290 l 2
 166 240.783203125 140.766601562 211.7578125 111 202.912109375 c 1
 111 25 l 1
 71 25 l 1
 71 202.912109375 l 1
 41.2333984375 211.7578125 16 240.783203125 16 290 c 2
 16 375 l 1
EndSplineSet
EndChar

StartChar: W
Encoding: 87 87 27
Width: 182
Flags: HW
LayerCount: 2
Fore
SplineSet
16 375 m 1
 56 375 l 1
 56 160 l 1
 91 240 l 1
 126 160 l 1
 126 375 l 1
 166 375 l 1
 166 25 l 1
 141 25 l 1
 91 150 l 1
 41 25 l 1
 16 25 l 1
 16 375 l 1
EndSplineSet
EndChar

StartChar: V
Encoding: 86 86 28
Width: 182
Flags: HW
LayerCount: 2
Fore
SplineSet
16 375 m 1
 56 375 l 1
 91 175 l 1
 126 375 l 1
 166 375 l 1
 106 25 l 1
 76 25 l 1
 16 375 l 1
EndSplineSet
EndChar

StartChar: U
Encoding: 85 85 29
Width: 182
Flags: HW
LayerCount: 2
Fore
SplineSet
91 25 m 0
 53.5 25 16 55 16 115 c 2
 16 375 l 1
 56 375 l 1
 56 115 l 2
 56 45 126 45 126 115 c 2
 126 375 l 1
 166 375 l 1
 166 115 l 2
 166 55 128.5 25 91 25 c 0
EndSplineSet
EndChar

StartChar: T
Encoding: 84 84 30
Width: 182
Flags: HW
LayerCount: 2
Fore
SplineSet
16 375 m 1
 166 375 l 1
 166 335 l 1
 111 335 l 1
 111 25 l 1
 71 25 l 1
 71 335 l 1
 16 335 l 1
 16 375 l 1
EndSplineSet
EndChar

StartChar: S
Encoding: 83 83 31
Width: 182
Flags: HW
LayerCount: 2
Fore
SplineSet
91 375 m 0
 128.5 375 166 345 166 285 c 1
 126 285 l 1
 126 355 56 355 56 285 c 0
 56 250 76 225 91 220 c 0
 141 200 166 175 166 115 c 0
 166 -5 16 -5 16 115 c 1
 56 115 l 1
 56 45 126 45 126 115 c 0
 126 150 106 175 91 180 c 0
 41 200 16 225 16 285 c 0
 16 345 53.5 375 91 375 c 0
EndSplineSet
EndChar

StartChar: R
Encoding: 82 82 32
Width: 182
Flags: HW
LayerCount: 2
Fore
SplineSet
16 375 m 1
 56 375 l 1
 91 375 l 2
 176.564453125 375 188.911132812 232.241210938 128.05078125 191.0234375 c 1
 166 25 l 1
 126 25 l 1
 90.572265625 180 l 1
 56 180 l 1
 56 25 l 1
 16 25 l 1
 16 375 l 1
56 335 m 1
 56 220 l 1
 91 220 l 2
 141 220 141 335 91 335 c 2
 56 335 l 1
EndSplineSet
EndChar

StartChar: Q
Encoding: 81 81 33
Width: 182
Flags: HW
LayerCount: 2
Fore
SplineSet
91 375 m 0
 128.5 375 166 345 166 285 c 2
 166 115 l 2
 166 88.2646484375 158.54296875 67.501953125 146.96875 52.6796875 c 1
 166 25 l 1
 126 25 l 1
 121.228515625 31.939453125 l 1
 77.0234375 10.8115234375 16 38.44140625 16 115 c 2
 16 285 l 2
 16 345 53.5 375 91 375 c 0
91 337.5 m 0
 73.5 337.5 56 320 56 285 c 2
 56 115 l 2
 56 74.43359375 79.5009765625 57.4267578125 99.271484375 63.87890625 c 1
 71 105 l 1
 111 105 l 1
 121.982421875 89.02734375 l 1
 124.49609375 96.23046875 126 104.856445312 126 115 c 2
 126 285 l 2
 126 320 108.5 337.5 91 337.5 c 0
EndSplineSet
EndChar

StartChar: P
Encoding: 80 80 34
Width: 182
Flags: HW
LayerCount: 2
Fore
SplineSet
16 375 m 1
 56 375 l 1
 91 375 l 2
 191 375 191 180 91 180 c 2
 56 180 l 1
 56 25 l 1
 16 25 l 1
 16 375 l 1
56 335 m 1
 56 220 l 1
 91 220 l 2
 141 220 141 335 91 335 c 2
 56 335 l 1
EndSplineSet
EndChar

StartChar: O
Encoding: 79 79 35
Width: 182
Flags: W
HStem: 337.5 37.5<69.4963 112.504>
VStem: 16 40<75.625 324.375> 126 40<75.625 324.375>
LayerCount: 2
Fore
SplineSet
91 375 m 0
 128.5 375 166 345 166 285 c 2
 166 115 l 2
 166 -5 16 -5 16 115 c 2
 16 285 l 2
 16 345 53.5 375 91 375 c 0
91 337.5 m 0
 73.5 337.5 56 320 56 285 c 2
 56 115 l 2
 56 45 126 45 126 115 c 2
 126 285 l 2
 126 320 108.5 337.5 91 337.5 c 0
EndSplineSet
EndChar

StartChar: N
Encoding: 78 78 36
Width: 182
Flags: HW
LayerCount: 2
Fore
SplineSet
16 25 m 1
 16 375 l 1
 41 375 l 1
 126 165 l 1
 126 375 l 1
 166 375 l 1
 166 25 l 1
 141 25 l 1
 56 235 l 1
 56 25 l 1
 16 25 l 1
EndSplineSet
EndChar

StartChar: M
Encoding: 77 77 37
Width: 182
Flags: HW
LayerCount: 2
Fore
SplineSet
16 25 m 1
 16 375 l 1
 41 375 l 1
 91 250 l 1
 141 375 l 1
 166 375 l 1
 166 25 l 1
 126 25 l 1
 126 240 l 1
 91 160 l 1
 56 240 l 1
 56 25 l 1
 16 25 l 1
EndSplineSet
EndChar

StartChar: L
Encoding: 76 76 38
Width: 182
Flags: HW
LayerCount: 2
Fore
SplineSet
16 375 m 1
 56 375 l 1
 56 65 l 1
 166 65 l 1
 166 25 l 1
 56 25 l 1
 16 25 l 1
 16 375 l 1
EndSplineSet
EndChar

StartChar: K
Encoding: 75 75 39
Width: 182
Flags: HW
LayerCount: 2
Fore
SplineSet
16 375 m 1
 56 375 l 1
 56 200 l 1
 56 25 l 1
 16 25 l 1
 16 375 l 1
56 200 m 1
 126 375 l 1
 166 375 l 1
 96 200 l 1
 166 25 l 1
 126 25 l 1
 56 200 l 1
EndSplineSet
EndChar

StartChar: J
Encoding: 74 74 40
Width: 182
Flags: HW
LayerCount: 2
Fore
SplineSet
66 375 m 1
 166 375 l 1
 166 335 l 1
 166 115 l 2
 166 -5 16 -5 16 115 c 1
 56 115 l 1
 56 45 126 45 126 115 c 2
 126 335 l 1
 66 335 l 1
 66 375 l 1
EndSplineSet
EndChar

StartChar: I
Encoding: 73 73 41
Width: 182
Flags: W
HStem: 25 40<16 71 111 166> 335 40<16 71 111 166>
VStem: 71 40<65 335>
LayerCount: 2
Fore
SplineSet
16 375 m 1
 166 375 l 1
 166 335 l 1
 111 335 l 1
 111 65 l 1
 166 65 l 1
 166 25 l 1
 16 25 l 1
 16 65 l 1
 71 65 l 1
 71 335 l 1
 16 335 l 1
 16 375 l 1
EndSplineSet
EndChar

StartChar: H
Encoding: 72 72 42
Width: 182
Flags: HW
LayerCount: 2
Fore
SplineSet
16 375 m 1
 56 375 l 1
 56 220 l 1
 126 220 l 1
 126 375 l 1
 166 375 l 1
 166 25 l 1
 126 25 l 1
 126 180 l 1
 56 180 l 1
 56 25 l 1
 16 25 l 1
 16 375 l 1
EndSplineSet
EndChar

StartChar: G
Encoding: 71 71 43
Width: 182
Flags: HW
LayerCount: 2
Fore
SplineSet
91 375 m 0
 128.5 375 166 345 166 285 c 1
 126 285 l 1
 126 355 56 355 56 285 c 2
 56 115 l 2
 56 45 126 45 126 115 c 2
 126 180 l 1
 91 180 l 1
 91 220 l 1
 166 220 l 1
 166 115 l 1
 166 25 l 1
 126 25 l 1
 126 34.353515625 l 1
 81.564453125 8.7841796875 16 35.6630859375 16 115 c 2
 16 285 l 2
 16 345 53.5 375 91 375 c 0
EndSplineSet
EndChar

StartChar: F
Encoding: 70 70 44
Width: 182
Flags: HW
LayerCount: 2
Fore
SplineSet
16 375 m 1
 166 375 l 1
 166 335 l 1
 56 335 l 1
 56 220 l 1
 166 220 l 1
 166 180 l 1
 56 180 l 1
 56 25 l 1
 16 25 l 1
 16 375 l 1
EndSplineSet
EndChar

StartChar: E
Encoding: 69 69 45
Width: 182
Flags: HW
LayerCount: 2
Fore
SplineSet
16 375 m 1
 166 375 l 1
 166 335 l 1
 56 335 l 1
 56 220 l 1
 166 220 l 1
 166 180 l 1
 56 180 l 1
 56 65 l 1
 166 65 l 1
 166 25 l 1
 16 25 l 1
 16 375 l 1
EndSplineSet
EndChar

StartChar: D
Encoding: 68 68 46
Width: 182
Flags: HW
LayerCount: 2
Fore
SplineSet
16 375 m 1
 56 375 l 1
 91 375 l 1
 191 350 191 50 91 25 c 1
 56 25 l 1
 16 25 l 1
 16 375 l 1
56 340 m 1
 56 65 l 1
 76 65 l 1
 141 80 141 320 76 340 c 1
 56 340 l 1
EndSplineSet
EndChar

StartChar: C
Encoding: 67 67 47
Width: 182
Flags: HW
LayerCount: 2
Fore
SplineSet
91 375 m 0
 128.5 375 166 345 166 285 c 1
 126 285 l 1
 126 355 56 355 56 285 c 2
 56 115 l 2
 56 45 126 45 126 115 c 1
 166 115 l 1
 166 -5 16 -5 16 115 c 2
 16 285 l 2
 16 345 53.5 375 91 375 c 0
EndSplineSet
EndChar

StartChar: B
Encoding: 66 66 48
Width: 181
Flags: HW
LayerCount: 2
Fore
SplineSet
16 375 m 1
 56 375 l 1
 91 375 l 2
 171.153320312 375 187.056640625 249.727539062 138.71875 200 c 1
 187.056640625 150.272460938 171.153320312 25 91 25 c 2
 56 25 l 1
 16 25 l 1
 16 375 l 1
56 335 m 1
 56 220 l 1
 91 220 l 2
 141 220 141 335 91 335 c 2
 56 335 l 1
56 180 m 1
 56 65 l 1
 91 65 l 2
 141 65 141 180 91 180 c 2
 56 180 l 1
EndSplineSet
EndChar

StartChar: A
Encoding: 65 65 49
Width: 182
Flags: HW
LayerCount: 2
Fore
SplineSet
16 285 m 1
 16 405 166 405 166 285 c 1
 126 285 l 1
 126 355 56 355 56 285 c 1
 16 285 l 1
16 285 m 1
 56 285 l 1
 56 25 l 1
 16 25 l 1
 16 285 l 1
126 285 m 1
 166 285 l 1
 166 25 l 1
 126 25 l 1
 126 285 l 1
56 220 m 1
 126 220 l 1
 126 180 l 1
 56 180 l 1
 56 220 l 1
EndSplineSet
EndChar

StartChar: X
Encoding: 88 88 50
Width: 182
Flags: HW
LayerCount: 2
Fore
SplineSet
16 375 m 1
 61 375 l 1
 91 275 l 1
 121 375 l 1
 166 375 l 1
 113.5 200 l 1
 166 25 l 1
 121 25 l 1
 91 125 l 1
 61 25 l 1
 16 25 l 1
 68.5 200 l 1
 16 375 l 1
EndSplineSet
EndChar

StartChar: x
Encoding: 120 120 51
Width: 182
Flags: W
HStem: 25 21G<16 71.5001 110.5 166> 205 20G<16 71.5001 110.5 166>
VStem: 16 150
LayerCount: 2
Fore
SplineSet
16 225 m 1
 61 225 l 1
 91 167.857421875 l 1
 121 225 l 1
 166 225 l 1
 113.5 125 l 1
 166 25 l 1
 121 25 l 1
 91 82.142578125 l 1
 61 25 l 1
 16 25 l 1
 68.5 125 l 1
 16 225 l 1
EndSplineSet
EndChar

StartChar: ampersand
Encoding: 129 38 53
Width: 182
Flags: HW
LayerCount: 2
Fore
SplineSet
90.21484375 373.9296875 m 0
 118.74609375 373.971679688 146 350.2734375 146 305 c 1
 106 305 l 1
 106 340 66 355 66 285 c 0
 66 225.354492188 93.08984375 160.7890625 124.794921875 99.93359375 c 1
 125.576171875 104.532226562 126 109.553710938 126 115 c 2
 126 140 l 1
 166 140 l 1
 166 115 l 2
 166 89.828125 159.397460938 69.939453125 148.966796875 55.328125 c 1
 154.715820312 45.021484375 160.434570312 34.89453125 166 25 c 1
 121 25 l 2
 120.044921875 26.8037109375 119.072265625 28.640625 118.11328125 30.44921875 c 0
 74.2158203125 12.060546875 16 40.2412109375 16 115 c 0
 16 144.698242188 30.3955078125 167.192382812 43.921875 188.599609375 c 1
 32.9189453125 221.08203125 26 253.38671875 26 285 c 0
 26 345.1953125 58.8779296875 373.8828125 90.21484375 373.9296875 c 0
62.828125 140.5234375 m 1
 58.482421875 131.1875 56 122.47265625 56 115 c 0
 56 73.7431640625 80.31640625 56.806640625 100.28515625 64.181640625 c 1
 87.052734375 89.4189453125 74.1064453125 114.942382812 62.828125 140.5234375 c 1
EndSplineSet
EndChar

StartChar: at
Encoding: 130 64 54
Width: 182
Flags: HW
LayerCount: 2
Fore
SplineSet
91 375 m 0
 128.5 375 166 350 166 300 c 2
 166 100 l 2
 166 0 76 0 76 100 c 2
 76 150 l 2
 76 203.709960938 101.963867188 228.569335938 126 224.583984375 c 1
 126 300 l 2
 126 350 56 350 56 300 c 2
 56 25 l 1
 16 25 l 1
 16 300 l 2
 16 350 53.5 375 91 375 c 0
113.5 187.5 m 0
 107.25 187.5 101 175 101 150 c 2
 101 100 l 2
 101 50 126 50 126 100 c 2
 126 150 l 2
 126 175 119.75 187.5 113.5 187.5 c 0
EndSplineSet
EndChar

StartChar: numbersign
Encoding: 131 35 55
Width: 182
Flags: HW
LayerCount: 2
Fore
SplineSet
61 375 m 1
 101 375 l 1
 86.857421875 265 l 1
 111.857421875 265 l 1
 126 375 l 1
 166 375 l 1
 151.857421875 265 l 1
 166 265 l 1
 166 225 l 1
 146.71484375 225 l 1
 140.28515625 175 l 1
 166 175 l 1
 166 135 l 1
 135.142578125 135 l 1
 121 25 l 1
 81 25 l 1
 95.142578125 135 l 1
 70.142578125 135 l 1
 56 25 l 1
 16 25 l 1
 30.142578125 135 l 1
 16 135 l 1
 16 175 l 1
 35.28515625 175 l 1
 41.71484375 225 l 1
 16 225 l 1
 16 265 l 1
 46.857421875 265 l 1
 61 375 l 1
81.71484375 225 m 1
 75.28515625 175 l 1
 100.28515625 175 l 1
 106.71484375 225 l 1
 81.71484375 225 l 1
EndSplineSet
EndChar

StartChar: percent
Encoding: 132 37 56
Width: 182
Flags: HW
LayerCount: 2
Fore
SplineSet
121 375 m 1
 166 375 l 1
 61 25 l 1
 16 25 l 1
 121 375 l 1
46 350 m 1
 86 350 l 1
 56 250 l 1
 16 250 l 1
 46 350 l 1
126 150 m 1
 166 150 l 1
 136 50 l 1
 96 50 l 1
 126 150 l 1
EndSplineSet
EndChar

StartChar: dollar
Encoding: 133 36 57
Width: 182
Flags: HW
LayerCount: 2
Fore
SplineSet
91 375 m 0
 128.5 375 166 345 166 285 c 1
 126 285 l 1
 126 309.694335938 117.276367188 325.634765625 106 332.90625 c 1
 106 213.4140625 l 1
 145.958984375 194.28515625 166 168.637695312 166 115 c 0
 166 -5 16 -5 16 115 c 1
 56 115 l 1
 56 90.3056640625 64.7236328125 74.365234375 76 67.09375 c 1
 76 186.5859375 l 1
 36.041015625 205.71484375 16 231.362304688 16 285 c 0
 16 345 53.5 375 91 375 c 0
76 332.90625 m 1
 64.7236328125 325.634765625 56 309.694335938 56 285 c 0
 56 261.115234375 65.3173828125 241.90234375 76 230.509765625 c 1
 76 332.90625 l 1
106 169.490234375 m 1
 106 67.09375 l 1
 117.276367188 74.365234375 126 90.3056640625 126 115 c 0
 126 138.884765625 116.682617188 158.09765625 106 169.490234375 c 1
EndSplineSet
EndChar

StartChar: question
Encoding: 134 63 58
Width: 182
Flags: HW
LayerCount: 2
Fore
SplineSet
91 375 m 0
 128.5 375 166 345 166 285 c 0
 166 245 111 165 111 150 c 2
 111 100 l 1
 71 100 l 1
 71 150 l 2
 71 175 126 245 126 285 c 0
 126 355 56 355 56 285 c 1
 16 285 l 1
 16 345 53.5 375 91 375 c 0
71 65 m 1
 111 65 l 1
 111 25 l 1
 71 25 l 1
 71 65 l 1
EndSplineSet
EndChar

StartChar: exclam
Encoding: 135 33 59
Width: 82
Flags: HW
LayerCount: 2
Fore
SplineSet
21 25 m 1
 21 65 l 1
 61 65 l 1
 61 25 l 1
 21 25 l 1
21 100 m 1
 16 375 l 1
 66 375 l 1
 61 100 l 1
 21 100 l 1
EndSplineSet
EndChar

StartChar: asterisk
Encoding: 136 42 60
Width: 182
Flags: HW
LayerCount: 2
Fore
SplineSet
71 225 m 1
 111 225 l 1
 111 164.666015625 l 1
 166 205 l 1
 166 155 l 1
 125.091796875 125 l 1
 166 95 l 1
 166 45 l 1
 111 85.333984375 l 1
 111 25 l 1
 71 25 l 1
 71 85.333984375 l 1
 16 45 l 1
 16 95 l 1
 56.908203125 125 l 1
 16 155 l 1
 16 205 l 1
 71 164.666015625 l 1
 71 225 l 1
EndSplineSet
EndChar

StartChar: plus
Encoding: 137 43 61
Width: 182
Flags: HW
LayerCount: 2
Fore
SplineSet
71 225 m 1
 111 225 l 1
 111 145 l 1
 166 145 l 1
 166 105 l 1
 111 105 l 1
 111 25 l 1
 71 25 l 1
 71 105 l 1
 16 105 l 1
 16 145 l 1
 71 145 l 1
 71 225 l 1
EndSplineSet
EndChar

StartChar: hyphen
Encoding: 138 45 62
Width: 182
Flags: HW
LayerCount: 2
Fore
SplineSet
16 145 m 1
 166 145 l 1
 166 105 l 1
 16 105 l 1
 16 145 l 1
EndSplineSet
EndChar

StartChar: equal
Encoding: 139 61 63
Width: 182
Flags: HW
LayerCount: 2
Fore
SplineSet
16 200 m 1
 166 200 l 1
 166 160 l 1
 16 160 l 1
 16 200 l 1
16 50 m 1
 16 90 l 1
 166 90 l 1
 166 50 l 1
 16 50 l 1
EndSplineSet
EndChar

StartChar: period
Encoding: 140 46 64
Width: 82
Flags: HW
LayerCount: 2
Fore
SplineSet
16 75 m 1
 66 75 l 1
 66 25 l 1
 16 25 l 1
 16 75 l 1
EndSplineSet
EndChar

StartChar: colon
Encoding: 141 58 65
Width: 82
Flags: HW
LayerCount: 2
Fore
SplineSet
16 75 m 1
 66 75 l 1
 66 25 l 1
 16 25 l 1
 16 75 l 1
16 225 m 1
 66 225 l 1
 66 175 l 1
 16 175 l 1
 16 225 l 1
EndSplineSet
EndChar

StartChar: comma
Encoding: 142 44 66
Width: 82
Flags: HW
LayerCount: 2
Fore
SplineSet
16 75 m 1
 66 75 l 1
 66 25 l 2
 66 -25 41 -50 16 -50 c 1
 31 -40 41 -25 41 25 c 1
 16 25 l 1
 16 75 l 1
EndSplineSet
EndChar

StartChar: semicolon
Encoding: 143 59 67
Width: 82
Flags: HW
LayerCount: 2
Fore
SplineSet
16 75 m 1
 66 75 l 1
 66 25 l 2
 66 -25 41 -50 16 -50 c 1
 31 -40 41 -25 41 25 c 1
 16 25 l 1
 16 75 l 1
16 225 m 1
 66 225 l 1
 66 175 l 1
 16 175 l 1
 16 225 l 1
EndSplineSet
EndChar

StartChar: uni275C
Encoding: 144 10076 68
Width: 82
Flags: HW
LayerCount: 2
Fore
SplineSet
16 375 m 1
 66 375 l 1
 66 325 l 2
 66 275 41 250 16 250 c 1
 31 260 41 275 41 325 c 1
 16 325 l 1
 16 375 l 1
EndSplineSet
EndChar

StartChar: uni275B
Encoding: 145 10075 69
Width: 82
Flags: HW
LayerCount: 2
Fore
SplineSet
66 250 m 1
 16 250 l 1
 16 300 l 2
 16 350 41 375 66 375 c 1
 51 365 41 350 41 300 c 1
 66 300 l 1
 66 250 l 1
EndSplineSet
EndChar

StartChar: uni275D
Encoding: 146 10077 70
Width: 157
Flags: HW
LayerCount: 2
Fore
SplineSet
66 250 m 1
 16 250 l 1
 16 300 l 2
 16 350 41 375 66 375 c 1
 51 365 41 350 41 300 c 1
 66 300 l 1
 66 250 l 1
141 250 m 1
 91 250 l 1
 91 300 l 2
 91 350 116 375 141 375 c 1
 126 365 116 350 116 300 c 1
 141 300 l 1
 141 250 l 1
EndSplineSet
EndChar

StartChar: uni275E
Encoding: 147 10078 71
Width: 157
Flags: HW
LayerCount: 2
Fore
SplineSet
91 375 m 1
 141 375 l 1
 141 325 l 2
 141 275 116 250 91 250 c 1
 106 260 116 275 116 325 c 1
 91 325 l 1
 91 375 l 1
16 375 m 1
 66 375 l 1
 66 325 l 2
 66 275 41 250 16 250 c 1
 31 260 41 275 41 325 c 1
 16 325 l 1
 16 375 l 1
EndSplineSet
EndChar

StartChar: quotedblleft
Encoding: 148 8220 72
Width: 157
Flags: HW
LayerCount: 2
Fore
SplineSet
141 250 m 1
 91 250 l 1
 91 300 l 2
 91 350 116 375 141 375 c 1
 126 365 116 325 141 300 c 1
 141 300 l 1
 141 250 l 1
66 250 m 1
 16 250 l 1
 16 300 l 2
 16 350 41 375 66 375 c 1
 51 365 41 325 66 300 c 1
 66 300 l 1
 66 250 l 1
EndSplineSet
EndChar

StartChar: quotedblright
Encoding: 149 8221 73
Width: 157
Flags: HW
LayerCount: 2
Fore
SplineSet
16 375 m 1
 66 375 l 1
 66 325 l 2
 66 275 41 250 16 250 c 1
 31 260 41 300 16 325 c 1
 16 325 l 1
 16 375 l 1
91 375 m 1
 141 375 l 1
 141 325 l 2
 141 275 116 250 91 250 c 1
 106 260 116 300 91 325 c 1
 91 325 l 1
 91 375 l 1
EndSplineSet
EndChar

StartChar: quotesingle
Encoding: 151 39 74
Width: 72
Flags: HW
LayerCount: 2
Fore
SplineSet
16 375 m 1
 56 375 l 1
 56 250 l 1
 16 250 l 1
 16 375 l 1
EndSplineSet
EndChar

StartChar: quoteright
Encoding: 150 8217 75
Width: 82
Flags: HW
LayerCount: 2
Fore
SplineSet
16 375 m 1
 66 375 l 1
 66 325 l 2
 66 275 41 250 16 250 c 1
 31 260 41 300 16 325 c 1
 16 325 l 1
 16 375 l 1
EndSplineSet
EndChar

StartChar: quotedbl
Encoding: 152 34 76
Width: 137
Flags: HW
LayerCount: 2
Fore
SplineSet
16 375 m 1
 56 375 l 1
 56 250 l 1
 16 250 l 1
 16 375 l 1
81 375 m 1
 121 375 l 1
 121 250 l 1
 81 250 l 1
 81 375 l 1
EndSplineSet
EndChar

StartChar: quoteleft
Encoding: 153 8216 77
Width: 82
Flags: HW
LayerCount: 2
Fore
SplineSet
66 250 m 1
 16 250 l 1
 16 300 l 2
 16 350 41 375 66 375 c 1
 51 365 41 325 66 300 c 1
 66 300 l 1
 66 250 l 1
EndSplineSet
EndChar

StartChar: grave
Encoding: 154 96 78
Width: 132
Flags: HW
LayerCount: 2
Fore
SplineSet
16 375 m 1
 61 375 l 1
 116 250 l 1
 71 250 l 1
 16 375 l 1
EndSplineSet
EndChar

StartChar: less
Encoding: 161 60 79
Width: 182
Flags: HW
LayerCount: 2
Fore
SplineSet
166 225 m 1
 166 185 l 1
 76 125 l 1
 166 65 l 1
 166 25 l 1
 16 125 l 1
 166 225 l 1
EndSplineSet
EndChar

StartChar: greater
Encoding: 162 62 80
Width: 182
Flags: HW
LayerCount: 2
Fore
SplineSet
16 225 m 1
 166 125 l 1
 16 25 l 1
 16 65 l 1
 106 125 l 1
 16 185 l 1
 16 225 l 1
EndSplineSet
EndChar

StartChar: asciicircum
Encoding: 163 94 81
Width: 182
Flags: HW
LayerCount: 2
Fore
SplineSet
16 225 m 1
 91 375 l 1
 166 225 l 1
 126 225 l 1
 91 295 l 1
 56 225 l 1
 16 225 l 1
EndSplineSet
EndChar

StartChar: asciitilde
Encoding: 164 126 82
Width: 182
Flags: HW
LayerCount: 2
Fore
SplineSet
61 181.25 m 0
 83.5 181.25 106 162.5 106 125 c 0
 106 100 126 100 126 125 c 2
 126 180 l 1
 166 180 l 1
 166 125 l 2
 166 50 76 50 76 125 c 0
 76 150 56 150 56 125 c 2
 56 70 l 1
 16 70 l 1
 16 125 l 2
 16 162.5 38.5 181.25 61 181.25 c 0
EndSplineSet
EndChar

StartChar: slash
Encoding: 165 47 83
Width: 182
Flags: HW
LayerCount: 2
Fore
SplineSet
16 25 m 1
 126 375 l 1
 166 375 l 1
 56 25 l 1
 16 25 l 1
EndSplineSet
EndChar

StartChar: backslash
Encoding: 166 92 84
Width: 182
Flags: HW
LayerCount: 2
Fore
SplineSet
166 25 m 1
 126 25 l 1
 16 375 l 1
 56 375 l 1
 166 25 l 1
EndSplineSet
EndChar

StartChar: bar
Encoding: 167 124 85
Width: 72
Flags: HW
LayerCount: 2
Fore
SplineSet
16 375 m 1
 56 375 l 1
 56 -125 l 1
 16 -125 l 1
 16 375 l 1
EndSplineSet
EndChar

StartChar: underscore
Encoding: 168 95 86
Width: 182
Flags: HW
LayerCount: 2
Fore
SplineSet
16 25 m 1
 166 25 l 1
 166 -15 l 1
 16 -15 l 1
 16 25 l 1
EndSplineSet
EndChar

StartChar: bracketleft
Encoding: 169 91 87
Width: 182
Flags: HW
LayerCount: 2
Fore
SplineSet
166 375 m 1
 166 335 l 1
 56 335 l 1
 56 -85 l 1
 166 -85 l 1
 166 -125 l 1
 16 -125 l 1
 16 375 l 1
 166 375 l 1
EndSplineSet
EndChar

StartChar: bracketright
Encoding: 170 93 88
Width: 182
Flags: HW
LayerCount: 2
Fore
SplineSet
16 375 m 1
 166 375 l 1
 166 -125 l 1
 16 -125 l 1
 16 -85 l 1
 126 -85 l 1
 126 335 l 1
 16 335 l 1
 16 375 l 1
EndSplineSet
EndChar

StartChar: parenleft
Encoding: 171 40 89
Width: 182
Flags: HW
LayerCount: 2
Fore
SplineSet
166 375 m 1
 166 335 l 1
 21 250 21 0 166 -85 c 1
 166 -125 l 1
 -34 -50 -34 300 166 375 c 1
EndSplineSet
EndChar

StartChar: parenright
Encoding: 172 41 90
Width: 182
Flags: HW
LayerCount: 2
Fore
SplineSet
16 375 m 1
 216 300 216 -50 16 -125 c 1
 16 -85 l 1
 161 0 161 250 16 335 c 1
 16 375 l 1
EndSplineSet
EndChar

StartChar: braceleft
Encoding: 173 123 91
Width: 183
Flags: HW
LayerCount: 2
Fore
SplineSet
17 144.500976562 m 1
 72.4208984375 144.796875 71.3193359375 194.352539062 71.3193359375 246.756835938 c 0
 71.3193359375 308.254882812 72.708984375 374.264648438 166 374.499023438 c 1
 166 335.499023438 l 1
 110.62890625 335.203125 111.676757812 285.739257812 111.676757812 233.384765625 c 0
 111.676757812 192.009765625 110.803710938 149.418945312 82.9130859375 125 c 1
 112.064453125 99.4775390625 111.674804688 54.5390625 111.674804688 11.0498046875 c 0
 111.674804688 -39.20703125 112.59765625 -85.2138671875 166 -85.4990234375 c 1
 166 -124.499023438 l 1
 69.99609375 -124.2578125 71.3212890625 -54.7783203125 71.3212890625 9.087890625 c 0
 71.3212890625 59.2900390625 70.353515625 105.213867188 17 105.499023438 c 1
 17 144.500976562 l 1
84.4267578125 125 m 1
 113.376953125 150.796875 112.674804688 195.736328125 112.674804688 238.950195312 c 0
 112.674804688 290.001953125 113.665039062 334.5 167 334.5 c 1
 167 375.5 l 1
 69.458984375 375.5 70.3212890625 305.984375 70.3212890625 240.912109375 c 0
 70.3212890625 189.916015625 69.2861328125 145.5 16 145.5 c 1
 16 104.5 l 1
 69.2861328125 104.5 70.3212890625 60.0859375 70.3212890625 9.087890625 c 0
 70.3212890625 -55.1337890625 69.18359375 -125.5 167 -125.5 c 1
 167 -84.5 l 1
 113.665039062 -84.5 112.674804688 -40.00390625 112.674804688 11.0498046875 c 0
 112.674804688 53.7509765625 113.388671875 99.193359375 84.4267578125 125 c 1
166.5 375 m 1
 166.5 335 l 1
 68.2890625 335 147.573242188 180.946289062 83.671875 125 c 1
 147.573242188 69.0537109375 68.2890625 -85 166.5 -85 c 1
 166.5 -125 l 1
 -8.5 -125 136.5 105 16.5 105 c 1
 16.5 145 l 1
 136.5 145 -8.5 375 166.5 375 c 1
EndSplineSet
EndChar

StartChar: braceright
Encoding: 174 125 92
Width: 183
Flags: HW
LayerCount: 2
Fore
SplineSet
17 374.499023438 m 1
 112.747070312 374.258789062 111.678710938 305.583984375 111.678710938 240.923828125 c 0
 111.678710938 190.716796875 112.642578125 144.78515625 166 144.5 c 1
 166 105.499023438 l 1
 110.583984375 105.203125 111.680664062 55.6552734375 111.680664062 3.2548828125 c 0
 111.680664062 -58.2470703125 110.296875 -124.265625 17 -124.500976562 c 1
 17 -85.4970703125 l 1
 72.3564453125 -85.2021484375 71.3232421875 -35.7626953125 71.3232421875 16.5771484375 c 0
 71.3232421875 57.9638671875 72.1884765625 100.57421875 100.087890625 125.000976562 c 1
 70.955078125 150.505859375 71.32421875 194.958007812 71.32421875 238.913085938 c 0
 71.32421875 289.184570312 70.4150390625 335.21484375 17 335.5 c 1
 17 374.499023438 l 1
167 145.499023438 m 1
 111.6328125 145.499023438 112.680664062 193.583007812 112.680664062 246.744140625 c 0
 112.680664062 308.614257812 111.064453125 375.5 16 375.5 c 1
 16 334.500976562 l 1
 71.302734375 334.500976562 70.3232421875 286.540039062 70.3232421875 233.423828125 c 0
 70.3232421875 192.815429688 70.86328125 149.692382812 98.5732421875 125.000976562 c 1
 69.6318359375 99.2109375 70.32421875 54.27734375 70.32421875 11.087890625 c 0
 70.32421875 -39.978515625 69.3466796875 -84.4990234375 16 -84.4990234375 c 1
 16 -125.500976562 l 1
 113.536132812 -125.500976562 112.678710938 -55.9873046875 112.678710938 9.0751953125 c 0
 112.678710938 60.076171875 113.709960938 104.5 167 104.5 c 1
 167 145.499023438 l 1
16.4990234375 375 m 1
 191.499023438 375 46.4990234375 145 166.499023438 145 c 1
 166.499023438 105 l 1
 46.4990234375 105 191.499023438 -125 16.4990234375 -125 c 1
 16.4990234375 -85 l 1
 114.709960938 -85 35.42578125 69.0537109375 99.3271484375 125 c 1
 35.42578125 180.946289062 114.709960938 335 16.4990234375 335 c 1
 16.4990234375 375 l 1
EndSplineSet
EndChar

StartChar: zero
Encoding: 175 48 93
Width: 182
Flags: HW
LayerCount: 2
Fore
SplineSet
91 300 m 0
 128.5 300 166 275 166 225 c 2
 166 100 l 2
 166 0 16 0 16 100 c 2
 16 225 l 2
 16 275 53.5 300 91 300 c 0
91 262.5 m 0
 73.5 262.5 56 250 56 225 c 2
 56 100 l 2
 56 50 126 50 126 100 c 2
 126 225 l 2
 126 250 108.5 262.5 91 262.5 c 0
91 201.25 m 0
 98.5 201.25 106 197.5 106 190 c 2
 106 135 l 2
 106 120 76 120 76 135 c 2
 76 190 l 2
 76 197.5 83.5 201.25 91 201.25 c 0
EndSplineSet
EndChar

StartChar: one
Encoding: 176 49 94
Width: 182
Flags: HW
LayerCount: 2
Fore
SplineSet
111 300 m 1
 111 65 l 1
 166 65 l 1
 166 25 l 1
 16 25 l 1
 16 65 l 1
 71 65 l 1
 71 300 l 1
 111 300 l 1
71 300 m 1
 71 225 l 1
 16 225 l 1
 16 250 l 1
 46 250 71 270 71 300 c 1
EndSplineSet
EndChar

StartChar: two
Encoding: 177 50 95
Width: 182
Flags: HW
LayerCount: 2
Fore
SplineSet
16 225 m 1
 16 325 166 325 166 225 c 1
 126 225 l 1
 126 275 56 275 56 225 c 1
 16 225 l 1
126 225 m 1
 166 225 l 1
 166 155 61 100 61 65 c 1
 166 65 l 1
 166 25 l 1
 16 25 l 1
 16 65 l 2
 16 125 126 175 126 225 c 1
EndSplineSet
EndChar

StartChar: three
Encoding: 178 51 96
Width: 181
Flags: HW
LayerCount: 2
Fore
SplineSet
16 300 m 1
 91 300 l 2
 168.705078125 300 186.025390625 206.413085938 142.96875 164.681640625 c 1
 186.024414062 121.603515625 168.705078125 25 91 25 c 2
 16 25 l 1
 16 65 l 1
 91 65 l 2
 136 65 136 145 91 145 c 2
 16 145 l 1
 16 185 l 1
 91 185 l 2
 136 185 136 260 91 260 c 2
 16 260 l 1
 16 300 l 1
EndSplineSet
EndChar

StartChar: four
Encoding: 179 52 97
Width: 182
Flags: HW
LayerCount: 2
Fore
SplineSet
91 300 m 1
 136 300 l 1
 61 160 l 1
 126 160 l 1
 126 210 l 1
 166 210 l 1
 166 160 l 1
 166 120 l 1
 166 25 l 1
 126 25 l 1
 126 120 l 1
 16 120 l 1
 16 160 l 1
 91 300 l 1
EndSplineSet
EndChar

StartChar: five
Encoding: 180 53 98
Width: 182
Flags: HW
LayerCount: 2
Fore
SplineSet
16 300 m 1
 151 300 l 1
 151 260 l 1
 56 260 l 1
 56 185 l 1
 91 185 l 2
 191 185 191 25 91 25 c 2
 16 25 l 1
 16 65 l 1
 91 65 l 2
 136 65 136 145 91 145 c 2
 16 145 l 1
 16 185 l 1
 16 300 l 1
EndSplineSet
EndChar

StartChar: six
Encoding: 181 54 99
Width: 182
Flags: HW
LayerCount: 2
Fore
SplineSet
121 300 m 1
 166 300 l 1
 140.563476562 271.383789062 103 230.633789062 79.015625 184.18359375 c 1
 82.837890625 184.716796875 86.830078125 185 91 185 c 0
 191 185 191 25 91 25 c 0
 43.0849609375 25 18.1328125 61.734375 16.134765625 100 c 1
 16 100 l 1
 16 100.884765625 16.0205078125 101.760742188 16.03125 102.640625 c 0
 15.9287109375 106.803710938 16.099609375 110.974609375 16.5390625 115.109375 c 0
 23.779296875 216.411132812 101.931640625 280.931640625 121 300 c 1
91 145 m 0
 46 145 46 65 91 65 c 0
 136 65 136 145 91 145 c 0
EndSplineSet
EndChar

StartChar: seven
Encoding: 182 55 100
Width: 182
Flags: HW
LayerCount: 2
Fore
SplineSet
16 300 m 1
 166 300 l 1
 166 260 l 1
 61 25 l 1
 16 25 l 1
 121 260 l 1
 16 260 l 1
 16 300 l 1
EndSplineSet
EndChar

StartChar: eight
Encoding: 183 56 101
Width: 181
Flags: HW
LayerCount: 2
Fore
SplineSet
90.9970703125 300 m 0
 168.702148438 300 186.022460938 206.413085938 142.965820312 164.681640625 c 1
 186.021484375 121.603515625 168.702148438 25 90.9970703125 25 c 0
 13.2919921875 25 -4.02734375 121.603515625 39.0283203125 164.681640625 c 1
 -4.0283203125 206.413085938 13.2919921875 300 90.9970703125 300 c 0
90.9970703125 260 m 0
 45.9970703125 260 45.9970703125 185 90.9970703125 185 c 0
 135.997070312 185 135.997070312 260 90.9970703125 260 c 0
90.9970703125 145 m 0
 45.9970703125 145 45.9970703125 65 90.9970703125 65 c 0
 135.997070312 65 135.997070312 145 90.9970703125 145 c 0
EndSplineSet
EndChar

StartChar: nine
Encoding: 184 57 102
Width: 182
Flags: HW
LayerCount: 2
Fore
SplineSet
61 25 m 1
 16 25 l 1
 41.4365234375 53.6162109375 79 94.3662109375 102.984375 140.81640625 c 1
 99.162109375 140.283203125 95.169921875 140 91 140 c 0
 -9 140 -9 300 91 300 c 0
 138.915039062 300 163.8671875 263.265625 165.865234375 225 c 1
 166 225 l 1
 166 224.115234375 165.979492188 223.239257812 165.96875 222.359375 c 0
 166.071289062 218.196289062 165.900390625 214.025390625 165.4609375 209.890625 c 0
 158.220703125 108.588867188 80.068359375 44.068359375 61 25 c 1
91 180 m 0
 136 180 136 260 91 260 c 0
 46 260 46 180 91 180 c 0
EndSplineSet
EndChar
